<svg xmlns="http://www.w3.org/2000/svg" width="940" height="788" viewBox="0 0 940 788">
<g>
<path d="M 472.94 639.87 C468.40,641.45 465.05,641.28 461.07,639.25 C456.03,636.68 454.16,633.38 452.97,625.00 C449.94,603.73 456.29,590.70 472.01,585.93 L 479.19 583.75 L 478.84 570.03 C478.45,554.50 477.86,553.00 472.13,553.00 C468.21,553.01 462.30,556.05 461.34,558.57 C461.01,559.42 461.29,563.36 461.97,567.31 C462.64,571.27 463.12,574.95 463.03,575.50 C462.76,577.18 459.63,576.04 457.25,573.39 C452.97,568.63 454.71,559.94 461.01,554.65 C465.36,550.98 470.55,549.71 479.31,550.15 C486.10,550.49 487.24,550.85 490.08,553.52 C495.98,559.07 496.00,559.25 496.00,601.97 L 496.00 641.00 L 492.97 641.00 C488.57,641.00 483.41,638.56 481.44,635.55 L 479.72 632.93 L 477.96 635.83 C476.98,637.43 474.73,639.25 472.94,639.87 ZM 630.00 637.50 C630.00,638.75 628.05,639.00 618.49,639.00 L 606.98 639.00 L 607.50 519.50 L 613.50 518.32 C616.80,517.67 620.74,516.90 622.25,516.60 L 625.00 516.05 L 625.00 636.00 L 627.50 636.00 C629.06,636.00 630.00,636.57 630.00,637.50 ZM 535.00 637.50 C535.00,638.74 533.11,639.00 524.00,639.00 L 513.00 639.00 L 513.00 519.32 L 520.25 518.03 C524.24,517.32 528.06,516.52 528.75,516.26 C529.74,515.88 530.00,528.22 530.00,575.89 L 530.00 636.00 L 532.50 636.00 C534.06,636.00 535.00,636.57 535.00,637.50 ZM 649.74 671.79 C643.04,678.04 632.32,673.83 630.39,664.20 L 629.75 661.00 L 638.46 661.00 C644.98,661.00 647.06,661.31 646.76,662.25 C646.51,662.99 643.86,663.71 640.30,664.00 C634.58,664.47 634.30,664.62 635.08,666.70 C635.91,668.94 640.71,672.00 643.37,672.00 C644.18,672.00 646.20,670.86 647.85,669.47 C651.04,666.79 653.13,661.54 655.02,651.50 C656.10,645.79 655.75,643.36 647.58,600.50 C642.86,575.75 639.00,554.71 639.00,553.75 C639.00,552.44 639.83,552.00 642.25,551.99 C644.04,551.99 647.76,551.71 650.53,551.38 L 655.55 550.77 L 659.29 575.14 C661.35,588.54 663.03,600.83 663.02,602.45 C662.98,608.99 664.86,602.45 668.92,582.00 C674.39,554.41 674.93,551.29 676.13,551.01 C676.29,550.97 676.45,550.98 676.64,550.99 C676.74,550.99 676.84,551.00 676.95,551.00 C677.03,551.00 677.12,550.99 677.20,550.98 C677.35,550.97 677.48,550.95 677.59,551.00 C678.67,551.44 677.39,557.67 663.42,625.52 C662.64,629.31 661.82,633.29 660.96,637.47 C655.75,662.78 654.15,667.68 649.74,671.79 ZM 471.20 632.80 C472.89,634.49 475.51,634.29 477.13,632.35 C478.17,631.09 478.58,625.60 478.82,609.35 C479.14,588.17 479.13,588.00 477.03,588.00 C475.86,588.00 473.80,589.10 472.45,590.45 C470.02,592.89 470.00,593.05 470.00,612.25 C470.00,625.97 470.35,631.95 471.20,632.80 Z" fill="rgb(14,14,14)"/>
<path d="M 395.00 503.57 C378.77,514.25 365.05,522.99 364.49,522.99 C363.39,523.00 359.48,520.58 335.07,504.77 C325.95,498.87 313.10,490.59 306.50,486.37 C291.95,477.07 265.18,459.43 235.19,439.40 C222.92,431.21 211.79,423.83 210.45,423.00 C209.12,422.18 207.77,420.84 207.45,420.02 C206.72,418.09 206.88,224.48 207.62,222.55 C208.14,221.20 215.20,216.46 240.72,200.33 C245.79,197.12 260.87,187.30 274.24,178.50 C287.60,169.70 305.87,157.77 314.82,152.00 C323.78,146.23 337.82,137.11 346.03,131.75 C355.17,125.78 361.97,122.00 363.55,122.00 C363.78,122.00 363.99,121.99 364.18,121.99 C364.39,121.98 364.58,121.97 364.77,121.98 C367.20,122.02 369.59,123.71 404.50,146.50 C411.10,150.81 417.40,154.83 418.50,155.44 C419.60,156.04 427.70,161.28 436.50,167.07 C464.65,185.59 467.43,187.17 470.12,186.11 C471.43,185.59 478.35,181.35 485.50,176.68 C492.65,172.02 504.68,164.22 512.23,159.35 C519.79,154.48 535.02,144.52 546.10,137.22 C569.48,121.79 571.26,120.79 573.69,121.69 C574.68,122.06 581.80,126.47 589.50,131.48 C601.82,139.51 619.46,150.85 630.00,157.53 C631.92,158.75 640.70,164.45 649.50,170.20 C658.30,175.95 668.88,182.83 673.00,185.50 C708.28,208.29 728.90,222.03 729.64,223.23 C729.97,223.76 730.33,268.07 730.45,321.70 C730.63,409.34 730.50,419.36 729.08,420.79 C727.47,422.41 704.68,437.48 634.50,483.32 C627.35,488.00 611.60,498.31 599.50,506.26 C573.72,523.18 573.69,523.20 571.32,522.30 C570.32,521.92 560.28,515.55 549.00,508.15 C537.72,500.75 519.80,489.02 509.17,482.09 C498.53,475.17 485.50,466.63 480.21,463.12 C474.92,459.62 469.58,456.75 468.34,456.75 C467.10,456.75 456.73,462.92 445.29,470.45 C433.86,477.99 411.23,492.89 395.00,503.57 ZM 356.00 515.40 C360.12,517.91 363.86,519.97 364.30,519.98 C365.56,520.01 370.93,517.06 375.93,513.59 C384.43,507.68 392.45,502.33 403.97,494.90 C417.10,486.43 451.60,463.30 459.32,457.80 C466.40,452.75 469.99,452.78 477.08,457.95 C480.06,460.12 485.24,463.61 488.60,465.70 C495.02,469.70 529.36,492.08 553.27,507.84 C569.90,518.80 572.64,520.31 574.28,519.42 C574.95,519.05 581.80,514.59 589.50,509.51 C597.20,504.42 609.12,496.62 616.00,492.17 C622.88,487.71 631.20,482.23 634.50,479.97 C637.80,477.71 643.88,473.77 648.00,471.21 C652.12,468.64 655.95,466.20 656.50,465.77 C657.05,465.34 664.03,460.81 672.00,455.71 C695.36,440.76 702.73,435.97 715.47,427.48 L 727.50 419.47 L 727.78 322.96 C728.01,243.54 727.82,226.14 726.72,224.63 C725.98,223.62 722.43,220.93 718.82,218.65 C715.22,216.37 706.92,210.94 700.39,206.60 C693.85,202.25 684.22,195.91 679.00,192.50 C670.78,187.15 650.57,173.75 644.50,169.63 C638.37,165.47 620.26,154.00 619.82,154.00 C619.37,154.00 606.59,145.63 600.70,141.47 C592.63,135.76 573.26,124.00 571.94,124.00 C571.07,124.00 561.97,129.51 551.72,136.25 C541.48,142.99 527.56,152.07 520.80,156.44 C499.01,170.50 482.63,181.33 477.26,185.24 C474.19,187.47 472.25,188.94 470.12,189.32 C466.25,189.99 461.74,187.02 448.60,178.36 L 447.50 177.64 C437.05,170.76 426.70,163.84 424.50,162.26 C422.30,160.69 418.70,158.33 416.50,157.03 C410.50,153.48 396.91,144.71 384.00,136.06 C370.83,127.24 366.65,125.00 363.36,125.00 C362.08,125.00 355.06,128.89 347.76,133.64 C340.47,138.39 331.58,144.17 328.00,146.48 C309.49,158.43 299.68,164.85 291.83,170.15 C287.06,173.37 282.93,176.00 282.65,176.00 C282.37,176.00 278.63,178.36 274.32,181.24 C270.02,184.11 265.77,186.93 264.88,187.49 C263.99,188.04 262.19,189.23 260.88,190.12 C259.57,191.01 252.65,195.46 245.50,200.00 C238.35,204.54 230.93,209.27 229.00,210.51 C227.07,211.75 221.79,215.11 217.25,217.98 L 209.00 223.19 L 209.00 417.92 L 211.12 419.90 C212.29,420.99 219.61,426.11 227.37,431.28 C235.14,436.44 248.83,445.58 257.79,451.59 C275.61,463.52 288.23,471.78 297.50,477.56 C303.48,481.29 325.29,495.49 340.50,505.55 C344.90,508.46 351.88,512.89 356.00,515.40 ZM 368.32 418.62 C364.69,421.33 360.82,421.70 359.00,419.50 C358.32,418.68 353.98,415.65 349.35,412.75 C338.89,406.22 337.11,405.05 316.90,391.52 C307.88,385.47 299.83,380.24 299.00,379.88 C298.17,379.52 296.26,378.07 294.75,376.66 L 292.00 374.10 L 292.00 322.74 C292.00,283.17 292.29,271.02 293.25,269.79 C293.94,268.92 299.23,265.17 305.00,261.46 C310.77,257.76 322.02,250.40 330.00,245.12 C356.14,227.82 362.33,224.00 364.23,224.00 C365.26,224.00 373.24,228.61 381.97,234.25 C390.70,239.89 400.63,246.30 404.04,248.50 C407.45,250.70 413.00,254.20 416.37,256.29 C419.74,258.37 423.51,261.20 424.75,262.59 L 427.00 265.11 L 427.00 308.09 C427.00,346.14 426.82,351.13 425.44,351.66 C423.21,352.52 420.75,351.17 409.86,343.12 C404.55,339.21 399.96,336.00 399.65,336.00 C399.34,336.00 397.43,334.88 395.40,333.50 C389.80,329.70 388.50,330.13 387.21,336.25 C385.94,342.26 383.97,378.89 383.99,396.06 C384.00,407.39 383.94,407.68 381.25,410.20 C379.74,411.61 376.92,413.55 375.00,414.50 C373.08,415.46 370.07,417.31 368.32,418.62 ZM 584.62 413.35 C578.08,417.56 572.46,420.99 572.12,420.98 C571.78,420.97 561.60,414.26 549.50,406.05 C537.40,397.85 524.05,389.06 519.83,386.52 C515.62,383.99 511.57,381.19 510.83,380.30 C509.78,379.04 509.44,370.40 509.21,339.60 C508.90,296.51 509.35,289.67 512.55,289.21 C514.43,288.94 542.42,306.85 557.21,317.78 C565.64,324.01 566.39,323.70 565.65,314.25 C564.45,298.75 564.53,229.62 565.76,227.39 C566.40,226.23 568.31,224.70 570.01,224.00 C573.48,222.56 574.91,223.04 581.50,227.87 C583.70,229.49 591.35,234.59 598.50,239.20 L 625.00 256.31 C632.42,261.11 639.62,265.97 641.00,267.13 L 643.50 269.22 L 643.79 320.36 C643.95,348.49 643.84,372.47 643.55,373.65 C643.07,375.56 630.81,384.59 623.00,388.79 C621.63,389.53 619.83,390.71 619.00,391.41 C618.18,392.11 612.78,395.61 607.00,399.19 C601.22,402.77 591.15,409.15 584.62,413.35 ZM 355.50 414.40 C358.25,416.34 361.35,417.94 362.38,417.96 C364.44,418.00 372.89,413.38 377.31,409.78 C379.98,407.61 380.20,406.79 381.55,394.00 C382.33,386.57 383.00,374.88 383.03,368.00 C383.10,351.19 385.39,328.00 387.08,326.95 C388.78,325.90 391.92,327.58 404.64,336.33 C410.37,340.27 416.40,344.33 418.04,345.35 C418.19,345.44 418.32,345.53 418.46,345.61 C419.92,346.52 421.00,347.19 421.79,346.95 C424.00,346.26 424.00,338.43 424.00,308.73 C424.00,307.74 424.00,306.73 424.00,305.70 L 424.00 265.33 L 420.25 262.36 C418.19,260.73 412.90,257.22 408.50,254.58 C404.10,251.93 400.35,249.37 400.17,248.89 C399.98,248.40 399.38,248.00 398.83,248.00 C398.28,248.00 392.13,244.27 385.17,239.71 C367.58,228.20 365.52,227.00 363.40,227.00 C362.38,227.00 353.66,232.21 344.02,238.59 C334.38,244.96 319.52,254.75 311.00,260.34 L 295.50 270.50 L 295.50 374.50 L 323.00 392.69 C338.12,402.70 352.75,412.47 355.50,414.40 ZM 545.50 400.56 C561.04,410.77 571.45,416.99 573.00,416.99 C574.52,416.98 583.46,411.78 595.76,403.74 C606.90,396.46 621.20,387.19 627.53,383.15 C633.86,379.11 639.48,374.96 640.03,373.95 C640.65,372.78 640.92,353.27 640.76,320.84 L 640.50 269.58 L 635.50 265.81 C631.13,262.50 609.74,248.89 600.69,243.65 C598.94,242.64 595.25,240.15 592.50,238.13 C583.32,231.36 574.38,226.00 572.29,226.00 C570.89,226.00 569.66,227.19 568.47,229.71 C566.84,233.14 566.76,236.60 567.39,276.46 C567.76,300.13 568.17,320.85 568.28,322.50 C568.63,327.35 565.47,326.77 557.00,320.43 C552.88,317.35 545.22,312.15 540.00,308.88 C534.78,305.61 527.01,300.66 522.74,297.87 C518.28,294.95 514.35,293.04 513.48,293.37 C512.17,293.87 512.01,299.36 512.24,336.18 L 512.50 378.42 L 516.50 381.27 C518.70,382.84 531.75,391.52 545.50,400.56 ZM 574.07 559.00 C573.56,559.00 572.94,559.79 572.69,560.75 C572.32,562.16 572.21,562.09 572.12,560.40 C571.96,557.51 568.53,554.63 566.03,555.28 C564.82,555.60 564.25,555.41 564.62,554.81 C564.96,554.26 566.31,554.02 567.62,554.27 C570.44,554.81 570.58,554.30 568.31,551.79 C566.79,550.11 566.78,549.98 568.25,550.54 C569.14,550.89 570.68,552.37 571.66,553.83 L 573.44 556.50 L 574.10 553.50 C574.70,550.78 574.77,550.90 574.88,554.75 C574.95,557.09 574.58,559.00 574.07,559.00 ZM 664.54 601.95 C663.49,605.71 663.00,605.84 663.02,602.45 C663.03,600.83 661.35,588.54 659.29,575.14 L 655.55 550.77 L 655.58 550.77 L 659.49 576.39 C661.65,590.47 663.77,602.00 664.20,602.00 C664.33,602.00 664.44,601.98 664.54,601.95 ZM 676.02 551.04 C675.30,551.34 674.77,552.97 673.11,560.98 C674.26,555.26 675.00,551.51 675.00,551.39 C675.00,551.24 675.42,551.11 676.02,551.04 ZM 670.00 576.40 C670.46,574.14 670.90,571.95 671.33,569.86 C670.65,573.26 669.86,577.27 668.92,582.00 C668.04,586.41 667.27,590.18 666.60,593.30 C667.49,588.82 668.69,582.86 670.00,576.40 ZM 677.59 550.98 C678.68,551.42 677.37,557.77 663.81,623.60 C663.68,624.24 663.55,624.88 663.42,625.52 C677.39,557.67 678.67,551.44 677.59,551.00 C677.48,550.95 677.35,550.97 677.20,550.98 C677.12,550.99 677.03,551.00 676.95,551.00 C676.93,551.00 676.91,551.00 676.89,551.00 C676.99,551.00 677.08,550.98 677.17,550.97 C677.33,550.95 677.48,550.93 677.59,550.98 Z" fill="rgb(225,152,120)"/>
<path d="M 356.00 515.40 C351.88,512.89 344.90,508.46 340.50,505.55 C325.29,495.49 303.48,481.29 297.50,477.56 C288.23,471.78 275.61,463.52 257.79,451.59 C248.83,445.58 235.14,436.44 227.37,431.28 C219.61,426.11 212.29,420.99 211.12,419.90 L 209.00 417.92 L 209.00 223.19 L 217.25 217.98 C221.79,215.11 227.07,211.75 229.00,210.51 C230.93,209.27 238.35,204.54 245.50,200.00 C252.65,195.46 259.57,191.01 260.88,190.12 C262.19,189.23 263.99,188.04 264.88,187.49 C265.77,186.93 270.02,184.11 274.32,181.24 C278.63,178.36 282.37,176.00 282.65,176.00 C282.93,176.00 287.06,173.37 291.83,170.15 C299.68,164.85 309.49,158.43 328.00,146.48 C331.58,144.17 340.47,138.39 347.76,133.64 C355.06,128.89 362.08,125.00 363.36,125.00 C366.65,125.00 370.83,127.24 384.00,136.06 C396.91,144.71 410.50,153.48 416.50,157.03 C418.70,158.33 422.30,160.69 424.50,162.26 C426.70,163.84 437.05,170.76 447.50,177.64 L 448.60 178.36 C461.74,187.02 466.25,189.99 470.12,189.32 C472.25,188.94 474.19,187.47 477.26,185.24 C482.63,181.33 499.01,170.50 520.80,156.44 C527.56,152.07 541.48,142.99 551.72,136.25 C561.97,129.51 571.07,124.00 571.94,124.00 C573.26,124.00 592.63,135.76 600.70,141.47 C606.59,145.63 619.37,154.00 619.82,154.00 C620.26,154.00 638.37,165.47 644.50,169.63 C650.57,173.75 670.78,187.15 679.00,192.50 C684.22,195.91 693.85,202.25 700.39,206.60 C706.92,210.94 715.22,216.37 718.82,218.65 C722.43,220.93 725.98,223.62 726.72,224.63 C727.82,226.14 728.01,243.54 727.78,322.96 L 727.50 419.47 L 715.47 427.48 C702.73,435.97 695.36,440.76 672.00,455.71 C664.03,460.81 657.05,465.34 656.50,465.77 C655.95,466.20 652.12,468.64 648.00,471.21 C643.88,473.77 637.80,477.71 634.50,479.97 C631.20,482.23 622.88,487.71 616.00,492.17 C609.12,496.62 597.20,504.42 589.50,509.51 C581.80,514.59 574.95,519.05 574.28,519.42 C572.64,520.31 569.90,518.80 553.27,507.84 C529.36,492.08 495.02,469.70 488.60,465.70 C485.24,463.61 480.06,460.12 477.08,457.95 C469.99,452.78 466.40,452.75 459.32,457.80 C451.60,463.30 417.10,486.43 403.97,494.90 C392.45,502.33 384.43,507.68 375.93,513.59 C370.93,517.06 365.56,520.01 364.30,519.98 C363.86,519.97 360.12,517.91 356.00,515.40 ZM 368.32 418.62 C370.07,417.31 373.08,415.46 375.00,414.50 C376.92,413.55 379.74,411.61 381.25,410.20 C383.94,407.68 384.00,407.39 383.99,396.06 C383.97,378.89 385.94,342.26 387.21,336.25 C388.50,330.13 389.80,329.70 395.40,333.50 C397.43,334.88 399.34,336.00 399.65,336.00 C399.96,336.00 404.55,339.21 409.86,343.12 C420.75,351.17 423.21,352.52 425.44,351.66 C426.82,351.13 427.00,346.14 427.00,308.09 L 427.00 265.11 L 424.75 262.59 C423.51,261.20 419.74,258.37 416.37,256.29 C413.00,254.20 407.45,250.70 404.04,248.50 C400.63,246.30 390.70,239.89 381.97,234.25 C373.24,228.61 365.26,224.00 364.23,224.00 C362.33,224.00 356.14,227.82 330.00,245.12 C322.02,250.40 310.77,257.76 305.00,261.46 C299.23,265.17 293.94,268.92 293.25,269.79 C292.29,271.02 292.00,283.17 292.00,322.74 L 292.00 374.10 L 294.75 376.66 C296.26,378.07 298.17,379.52 299.00,379.88 C299.83,380.24 307.88,385.47 316.90,391.52 C337.11,405.05 338.89,406.22 349.35,412.75 C353.98,415.65 358.32,418.68 359.00,419.50 C360.82,421.70 364.69,421.33 368.32,418.62 ZM 584.62 413.35 C591.15,409.15 601.22,402.77 607.00,399.19 C612.78,395.61 618.18,392.11 619.00,391.41 C619.83,390.71 621.63,389.53 623.00,388.79 C630.81,384.59 643.07,375.56 643.55,373.65 C643.84,372.47 643.95,348.49 643.79,320.36 L 643.50 269.22 L 641.00 267.13 C639.62,265.97 632.42,261.11 625.00,256.31 L 598.50 239.20 C591.35,234.59 583.70,229.49 581.50,227.87 C574.91,223.04 573.48,222.56 570.01,224.00 C568.31,224.70 566.40,226.23 565.76,227.39 C564.53,229.62 564.45,298.75 565.65,314.25 C566.39,323.70 565.64,324.01 557.21,317.78 C542.42,306.85 514.43,288.94 512.55,289.21 C509.35,289.67 508.90,296.51 509.21,339.60 C509.44,370.40 509.78,379.04 510.83,380.30 C511.57,381.19 515.62,383.99 519.83,386.52 C524.05,389.06 537.40,397.85 549.50,406.05 C561.60,414.26 571.78,420.97 572.12,420.98 C572.46,420.99 578.08,417.56 584.62,413.35 ZM 432.00 673.09 C431.70,673.16 431.41,673.24 431.13,673.31 C429.45,673.76 428.31,674.07 427.55,673.66 C425.99,672.84 425.99,669.04 426.00,657.42 C426.00,656.49 426.00,655.52 426.00,654.50 C426.00,642.08 425.63,635.00 424.99,635.00 C424.44,635.00 423.01,636.12 421.81,637.50 C418.57,641.23 412.22,641.01 407.66,637.01 C400.60,630.81 398.00,619.09 398.00,593.52 C398.00,569.48 401.17,557.50 408.90,552.29 C414.11,548.78 419.08,549.19 422.80,553.43 C426.03,557.10 427.00,557.07 427.00,553.27 C427.00,550.90 427.08,550.89 434.25,551.57 C438.24,551.95 441.84,552.45 442.25,552.69 C442.66,552.92 443.00,579.62 443.00,612.01 L 443.00 670.91 L 439.25 671.55 C437.19,671.90 433.92,672.59 432.00,673.09 ZM 574.07 559.00 C574.58,559.00 574.95,557.09 574.88,554.75 C574.77,550.90 574.70,550.78 574.10,553.50 L 574.00 553.95 L 574.00 551.12 L 581.25 551.64 C585.24,551.93 589.06,552.34 589.75,552.55 C591.42,553.07 591.59,669.51 589.93,670.54 C589.34,670.91 585.85,671.83 582.18,672.60 C578.51,673.37 575.16,674.00 574.75,674.00 C574.34,674.00 574.00,665.48 574.00,655.06 C574.00,644.64 573.62,635.88 573.15,635.59 C572.68,635.30 571.25,636.17 569.97,637.53 C566.68,641.04 560.30,640.97 556.03,637.37 C548.85,631.33 546.01,618.98 546.00,593.71 C546.00,563.79 551.56,550.00 563.63,550.00 C565.14,550.00 566.23,550.08 567.16,550.35 C567.21,550.54 567.59,550.99 568.31,551.79 C570.58,554.30 570.44,554.81 567.62,554.27 C566.31,554.02 564.96,554.26 564.62,554.81 C564.25,555.41 564.82,555.60 566.03,555.28 C566.25,555.22 566.48,555.19 566.72,555.19 C566.66,555.19 566.61,555.20 566.56,555.21 C564.53,555.50 564.50,556.01 564.24,594.38 C564.05,622.94 564.29,633.64 565.15,634.68 C567.03,636.95 569.36,635.79 571.50,631.50 C573.34,627.81 573.53,625.13 573.82,597.00 C574.06,574.95 573.91,566.07 572.54,561.27 C572.59,561.13 572.64,560.96 572.69,560.75 C572.94,559.79 573.56,559.00 574.07,559.00 ZM 417.11 634.63 C419.40,637.39 421.77,636.16 423.67,631.25 C425.31,626.98 425.50,623.08 425.50,592.85 C425.50,560.91 425.40,559.10 423.55,557.06 C422.31,555.69 420.67,555.01 419.05,555.20 L 416.50 555.50 L 416.24 594.38 C416.05,622.25 416.30,633.65 417.11,634.63 ZM 573.56 555.96 L 573.44 556.50 L 571.77 554.01 ZM 572.03 559.78 C571.53,558.56 570.90,557.62 570.13,556.71 C570.07,556.64 570.02,556.58 569.96,556.52 C570.97,557.38 571.77,558.56 572.03,559.78 Z" fill="rgb(231,93,37)"/>
<path d="M 0.00 394.00 L 0.00 0.00 L 470.00 0.00 L 940.00 0.00 L 940.00 394.00 L 940.00 788.00 L 470.00 788.00 L 0.00 788.00 L 0.00 394.00 ZM 649.74 671.79 C654.15,667.68 655.75,662.78 660.96,637.47 C679.82,545.84 678.87,551.00 676.86,551.00 C675.84,551.00 675.00,551.17 675.00,551.39 C675.00,551.60 672.75,562.86 670.00,576.40 C667.25,589.95 665.00,601.25 665.00,601.51 C665.00,601.78 664.64,602.00 664.20,602.00 C663.77,602.00 661.65,590.47 659.49,576.39 L 655.58 550.77 L 650.54 551.38 C647.77,551.71 644.04,551.99 642.25,551.99 C639.83,552.00 639.00,552.44 639.00,553.75 C639.00,554.71 642.86,575.75 647.58,600.50 C655.75,643.36 656.10,645.79 655.02,651.50 C653.13,661.54 651.04,666.79 647.85,669.47 C646.20,670.86 644.18,672.00 643.37,672.00 C640.71,672.00 635.91,668.94 635.08,666.70 C634.30,664.62 634.58,664.47 640.30,664.00 C643.86,663.71 646.51,662.99 646.76,662.25 C647.06,661.31 644.98,661.00 638.46,661.00 L 629.75 661.00 L 630.39 664.20 C632.32,673.83 643.04,678.04 649.74,671.79 ZM 432.00 673.09 C433.92,672.59 437.19,671.90 439.25,671.55 L 443.00 670.91 L 443.00 612.01 C443.00,579.62 442.66,552.92 442.25,552.69 C441.84,552.45 438.24,551.95 434.25,551.57 C427.08,550.89 427.00,550.90 427.00,553.27 C427.00,557.07 426.03,557.10 422.80,553.43 C419.08,549.19 414.11,548.78 408.90,552.29 C401.17,557.50 398.00,569.48 398.00,593.52 C398.00,619.09 400.60,630.81 407.66,637.01 C412.22,641.01 418.57,641.23 421.81,637.50 C423.01,636.12 424.44,635.00 424.99,635.00 C425.63,635.00 426.00,642.08 426.00,654.50 C426.00,675.71 425.68,674.72 432.00,673.09 ZM 582.18 672.60 C585.85,671.83 589.34,670.91 589.93,670.54 C591.59,669.51 591.42,553.07 589.75,552.55 C589.06,552.34 585.24,551.93 581.25,551.64 L 574.00 551.12 L 574.00 553.78 L 574.00 556.45 L 571.06 553.22 C568.58,550.51 567.40,550.00 563.63,550.00 C551.56,550.00 546.00,563.79 546.00,593.71 C546.01,618.98 548.85,631.33 556.03,637.37 C560.30,640.97 566.68,641.04 569.97,637.53 C571.25,636.17 572.68,635.30 573.15,635.59 C573.62,635.88 574.00,644.64 574.00,655.06 C574.00,665.48 574.34,674.00 574.75,674.00 C575.16,674.00 578.51,673.37 582.18,672.60 ZM 472.94 639.87 C474.73,639.25 476.98,637.43 477.96,635.83 L 479.72 632.93 L 481.44 635.55 C483.41,638.56 488.57,641.00 492.97,641.00 L 496.00 641.00 L 496.00 601.97 C496.00,559.25 495.98,559.07 490.08,553.52 C487.24,550.85 486.10,550.49 479.31,550.15 C470.55,549.71 465.36,550.98 461.01,554.65 C454.71,559.94 452.97,568.63 457.25,573.39 C459.63,576.04 462.76,577.18 463.03,575.50 C463.12,574.95 462.64,571.27 461.97,567.31 C461.29,563.36 461.01,559.42 461.34,558.57 C462.30,556.05 468.21,553.01 472.13,553.00 C477.86,553.00 478.45,554.50 478.84,570.03 L 479.19 583.75 L 472.01 585.93 C456.29,590.70 449.94,603.73 452.97,625.00 C454.16,633.38 456.03,636.68 461.07,639.25 C465.05,641.28 468.40,641.45 472.94,639.87 ZM 535.00 637.50 C535.00,636.57 534.06,636.00 532.50,636.00 L 530.00 636.00 L 530.00 575.89 C530.00,528.22 529.74,515.88 528.75,516.26 C528.06,516.52 524.24,517.32 520.25,518.03 L 513.00 519.32 L 513.00 579.16 L 513.00 639.00 L 524.00 639.00 C533.11,639.00 535.00,638.74 535.00,637.50 ZM 630.00 637.50 C630.00,636.57 629.06,636.00 627.50,636.00 L 625.00 636.00 L 625.00 576.03 L 625.00 516.05 L 622.25 516.60 C620.74,516.90 616.80,517.67 613.50,518.32 L 607.50 519.50 L 607.24 579.25 L 606.98 639.00 L 618.49 639.00 C628.05,639.00 630.00,638.75 630.00,637.50 ZM 395.00 503.57 C411.23,492.89 433.86,477.99 445.29,470.45 C456.73,462.92 467.10,456.75 468.34,456.75 C469.58,456.75 474.92,459.62 480.21,463.12 C485.50,466.63 498.53,475.17 509.17,482.09 C519.80,489.02 537.72,500.75 549.00,508.15 C560.28,515.55 570.32,521.92 571.32,522.30 C573.69,523.20 573.72,523.18 599.50,506.26 C611.60,498.31 627.35,488.00 634.50,483.32 C704.68,437.48 727.47,422.41 729.08,420.79 C730.50,419.36 730.63,409.34 730.45,321.70 C730.33,268.07 729.97,223.76 729.64,223.23 C728.90,222.03 708.28,208.29 673.00,185.50 C668.88,182.83 658.30,175.95 649.50,170.20 C640.70,164.45 631.92,158.75 630.00,157.53 C619.46,150.85 601.82,139.51 589.50,131.48 C581.80,126.47 574.68,122.06 573.69,121.69 C571.26,120.79 569.48,121.79 546.10,137.22 C535.02,144.52 519.79,154.48 512.23,159.35 C504.68,164.22 492.65,172.02 485.50,176.68 C478.35,181.35 471.43,185.59 470.12,186.11 C467.43,187.17 464.65,185.59 436.50,167.07 C427.70,161.28 419.60,156.04 418.50,155.44 C417.40,154.83 411.10,150.81 404.50,146.50 C364.27,120.23 367.22,122.00 363.55,122.00 C361.97,122.00 355.17,125.78 346.03,131.75 C337.82,137.11 323.78,146.23 314.82,152.00 C305.87,157.77 287.60,169.70 274.24,178.50 C260.87,187.30 245.79,197.12 240.72,200.33 C215.20,216.46 208.14,221.20 207.62,222.55 C206.88,224.48 206.72,418.09 207.45,420.02 C207.77,420.84 209.12,422.18 210.45,423.00 C211.79,423.83 222.92,431.21 235.19,439.40 C265.18,459.43 291.95,477.07 306.50,486.37 C313.10,490.59 325.95,498.87 335.07,504.77 C359.48,520.58 363.39,523.00 364.49,522.99 C365.05,522.99 378.77,514.25 395.00,503.57 ZM 417.11 634.63 C416.30,633.65 416.05,622.25 416.24,594.38 L 416.50 555.50 L 419.05 555.20 C420.67,555.01 422.31,555.69 423.55,557.06 C425.40,559.10 425.50,560.91 425.50,592.85 C425.50,623.08 425.31,626.98 423.67,631.25 C421.77,636.16 419.40,637.39 417.11,634.63 ZM 565.15 634.68 C564.29,633.64 564.05,622.94 564.24,594.38 C564.50,556.01 564.53,555.50 566.56,555.21 C567.69,555.04 569.29,555.72 570.13,556.71 C573.72,560.95 574.15,565.71 573.82,597.00 C573.53,625.13 573.34,627.81 571.50,631.50 C569.36,635.79 567.03,636.95 565.15,634.68 ZM 471.20 632.80 C470.35,631.95 470.00,625.97 470.00,612.25 C470.00,593.05 470.02,592.89 472.45,590.45 C473.80,589.10 475.86,588.00 477.03,588.00 C479.13,588.00 479.14,588.17 478.82,609.35 C478.58,625.60 478.17,631.09 477.13,632.35 C475.51,634.29 472.89,634.49 471.20,632.80 ZM 355.50 414.40 C352.75,412.47 338.12,402.70 323.00,392.69 L 295.50 374.50 L 295.50 322.50 L 295.50 270.50 L 311.00 260.34 C319.52,254.75 334.38,244.96 344.02,238.59 C353.66,232.21 362.38,227.00 363.40,227.00 C365.52,227.00 367.58,228.20 385.17,239.71 C392.13,244.27 398.28,248.00 398.83,248.00 C399.38,248.00 399.98,248.40 400.17,248.89 C400.35,249.37 404.10,251.93 408.50,254.58 C412.90,257.22 418.19,260.73 420.25,262.36 L 424.00 265.33 L 424.00 305.70 C424.00,350.10 424.15,349.13 418.04,345.35 C416.40,344.33 410.37,340.27 404.64,336.33 C391.92,327.58 388.78,325.90 387.08,326.95 C385.39,328.00 383.10,351.19 383.03,368.00 C383.00,374.88 382.33,386.57 381.55,394.00 C380.20,406.79 379.98,407.61 377.31,409.78 C372.89,413.38 364.44,418.00 362.38,417.96 C361.35,417.94 358.25,416.34 355.50,414.40 ZM 545.50 400.56 C531.75,391.52 518.70,382.84 516.50,381.27 L 512.50 378.42 L 512.24 336.18 C512.01,299.36 512.17,293.87 513.48,293.37 C514.35,293.04 518.28,294.95 522.74,297.87 C527.01,300.66 534.78,305.61 540.00,308.88 C545.22,312.15 552.88,317.35 557.00,320.43 C565.47,326.77 568.63,327.35 568.28,322.50 C568.17,320.85 567.76,300.13 567.39,276.46 C566.76,236.60 566.84,233.14 568.47,229.71 C569.66,227.19 570.89,226.00 572.29,226.00 C574.38,226.00 583.32,231.36 592.50,238.13 C595.25,240.15 598.94,242.64 600.69,243.65 C609.74,248.89 631.13,262.50 635.50,265.81 L 640.50 269.58 L 640.76 320.84 C640.92,353.27 640.65,372.78 640.03,373.95 C639.48,374.96 633.86,379.11 627.53,383.15 C621.20,387.19 606.90,396.46 595.76,403.74 C583.46,411.78 574.52,416.98 573.00,416.99 C571.45,416.99 561.04,410.77 545.50,400.56 Z" fill="rgb(254,254,253)"/>
</g>
</svg>