<svg xmlns="http://www.w3.org/2000/svg" width="566" height="577" viewBox="0 0 566 577">
<g>
<path d="M 281.94 536.87 C277.40,538.45 274.05,538.28 270.07,536.25 C265.03,533.68 263.16,530.38 261.97,522.00 C259.91,507.41 262.90,495.03 270.04,488.59 C273.33,485.61 276.83,484.11 286.75,481.40 C288.50,480.93 288.46,456.48 286.71,453.00 C284.53,448.66 275.75,449.30 271.38,454.13 C269.78,455.91 269.73,456.74 270.91,463.79 C271.61,468.03 272.26,471.95 272.35,472.50 C272.63,474.34 268.52,472.92 266.25,470.39 C263.62,467.46 263.23,461.39 265.40,457.20 C269.01,450.27 275.72,447.00 286.32,447.00 C294.42,447.00 298.29,448.76 302.41,454.32 C304.44,457.06 304.51,458.35 304.79,497.57 L 305.09 538.00 L 302.79 537.99 C298.04,537.98 292.94,535.84 290.82,532.97 L 288.65 530.04 L 286.92 532.89 C285.97,534.46 283.73,536.25 281.94,536.87 ZM 439.00 534.50 C439.00,535.75 437.06,536.00 427.50,536.00 L 416.00 536.00 L 416.00 416.32 L 423.25 415.08 C427.24,414.40 431.29,413.63 432.25,413.36 C433.90,412.89 434.00,416.20 434.00,472.93 L 434.00 533.00 L 436.50 533.00 C438.06,533.00 439.00,533.57 439.00,534.50 ZM 344.00 534.50 C344.00,535.74 342.11,536.00 333.00,536.00 L 322.00 536.00 L 322.00 416.32 L 329.25 415.03 C333.24,414.32 337.06,413.52 337.75,413.26 C338.74,412.88 339.00,425.22 339.00,472.89 L 339.00 533.00 L 341.50 533.00 C343.06,533.00 344.00,533.57 344.00,534.50 ZM 459.04 568.46 C452.15,575.06 441.36,571.07 439.39,561.20 L 438.75 558.00 L 447.46 558.00 C453.98,558.00 456.06,558.31 455.75,559.25 C455.50,560.02 452.99,560.61 449.17,560.80 C445.78,560.96 443.00,561.54 443.00,562.09 C443.00,563.81 447.71,567.89 450.50,568.59 C456.32,570.05 460.96,563.60 463.59,550.41 L 465.16 542.50 L 458.02 505.00 C448.37,454.33 447.60,450.06 448.08,449.63 C448.31,449.42 452.11,448.95 456.53,448.58 L 464.56 447.90 L 468.28 472.70 C470.32,486.34 472.14,498.62 472.32,500.00 C472.85,504.01 473.54,501.30 478.94,474.09 C481.71,460.12 484.18,448.49 484.41,448.25 C484.65,448.02 485.49,447.98 486.27,448.16 C487.42,448.43 485.48,459.24 476.35,503.50 C470.11,533.75 464.27,560.15 463.38,562.18 C462.49,564.20 460.54,567.03 459.04,568.46 ZM 280.20 529.80 C281.89,531.49 284.51,531.29 286.13,529.35 C287.17,528.09 287.58,522.60 287.82,506.35 C288.14,485.17 288.13,485.00 286.03,485.00 C284.86,485.00 282.80,486.10 281.45,487.45 C279.02,489.89 279.00,490.05 279.00,509.25 C279.00,522.97 279.35,528.95 280.20,529.80 Z" fill="rgb(8,8,8)"/>
<path d="M 189.79 409.67 C181.15,415.35 173.71,420.00 173.24,420.00 C172.78,420.00 169.50,418.13 165.95,415.84 C150.07,405.60 141.38,399.94 125.50,389.54 C116.15,383.42 106.47,377.22 104.00,375.78 C101.53,374.33 86.22,364.35 70.00,353.59 C28.15,325.86 18.97,319.68 17.39,318.18 C16.22,317.07 16.00,301.17 16.00,217.91 L 16.00 118.96 L 24.25 113.63 C28.79,110.70 39.47,103.90 48.00,98.52 C56.53,93.14 73.18,82.34 85.00,74.53 C96.82,66.72 110.32,57.84 115.00,54.79 C119.68,51.75 132.27,43.51 143.00,36.47 C153.73,29.43 164.92,22.39 167.88,20.82 L 173.27 17.97 L 177.88 20.63 C180.42,22.09 187.45,26.54 193.50,30.53 C199.55,34.51 209.68,41.11 216.00,45.19 C222.32,49.27 236.83,58.66 248.22,66.05 C271.72,81.30 276.07,83.96 277.54,83.98 C278.52,84.00 285.28,79.77 301.78,68.83 C305.78,66.17 309.24,64.00 309.46,64.00 C309.68,64.00 314.51,60.94 320.18,57.20 C325.86,53.46 332.98,48.85 336.00,46.95 C339.02,45.06 348.39,38.89 356.82,33.25 C365.24,27.61 374.14,21.87 376.60,20.49 L 381.08 18.00 L 385.17 20.09 C387.43,21.24 393.82,25.22 399.38,28.93 C414.04,38.72 427.58,47.50 443.50,57.54 C451.20,62.41 461.74,69.27 466.91,72.81 C472.09,76.34 481.09,82.17 486.91,85.77 C492.74,89.36 498.62,93.16 500.00,94.22 C501.38,95.28 505.65,98.13 509.50,100.55 C513.35,102.97 521.56,108.36 527.75,112.53 L 539.00 120.11 L 539.08 124.31 C539.12,126.61 539.28,170.35 539.43,221.50 C539.66,298.97 539.48,314.96 538.33,317.25 C537.57,318.76 536.58,320.00 536.12,320.00 C535.66,320.00 526.56,325.77 515.89,332.82 C505.23,339.88 493.58,347.50 490.00,349.78 C486.42,352.05 480.12,356.17 476.00,358.94 C471.88,361.71 464.45,366.59 459.50,369.78 C454.55,372.98 446.00,378.55 440.50,382.17 C395.45,411.79 385.40,418.32 383.46,419.20 C383.26,419.29 383.09,419.38 382.92,419.45 C381.07,420.17 378.21,418.30 327.76,385.17 L 322.17 381.50 C279.89,353.74 278.44,352.88 275.79,353.89 C273.62,354.71 267.12,358.68 264.50,360.77 C263.95,361.21 254.95,367.14 244.50,373.94 C212.49,394.77 206.07,398.97 189.79,409.67 ZM 163.33 411.20 C168.37,414.33 172.96,416.92 173.53,416.95 C174.68,417.01 183.34,411.63 197.74,401.91 C211.26,392.77 224.02,384.52 227.00,382.99 C228.38,382.28 229.73,381.43 230.00,381.10 C230.27,380.77 233.20,378.75 236.50,376.61 C239.80,374.47 249.58,367.80 258.24,361.79 C268.74,354.51 274.92,350.84 276.81,350.79 C279.79,350.70 282.79,352.54 321.50,378.31 C323.70,379.77 325.99,381.38 326.59,381.88 C327.20,382.38 329.20,383.57 331.04,384.52 C332.89,385.48 338.25,388.84 342.95,391.99 C369.50,409.79 379.51,416.00 381.70,416.00 C383.08,416.00 389.83,412.22 397.31,407.25 C404.57,402.44 410.95,398.27 411.50,398.00 C412.65,397.43 417.69,394.03 427.00,387.57 C430.58,385.09 433.82,383.04 434.21,383.03 C435.11,382.99 440.69,379.21 445.80,375.16 C447.99,373.42 450.14,372.00 450.57,372.00 C451.01,372.00 455.22,369.46 459.93,366.35 C464.64,363.24 470.08,359.70 472.00,358.47 C473.92,357.24 478.82,354.05 482.88,351.37 C486.94,348.69 490.97,346.05 491.84,345.50 C492.70,344.95 497.03,342.21 501.46,339.42 C517.99,328.97 530.19,320.78 533.47,317.89 L 536.85 314.92 L 536.96 219.63 C537.02,167.22 536.78,123.60 536.44,122.70 C535.86,121.20 529.81,116.90 513.63,106.50 C510.21,104.30 505.07,100.81 502.20,98.75 C499.34,96.69 496.74,95.00 496.44,95.00 C495.93,95.00 481.83,85.96 471.00,78.68 C440.10,57.92 431.00,51.94 429.24,51.21 C427.37,50.44 421.14,46.42 398.83,31.56 C393.51,28.02 387.32,24.18 385.07,23.04 C380.18,20.54 379.95,20.63 364.70,30.90 C359.31,34.53 352.78,38.81 350.20,40.42 C339.24,47.23 313.47,63.99 300.26,72.90 C292.43,78.18 284.16,83.58 281.89,84.90 L 277.74 87.29 L 272.62 84.61 C269.80,83.13 264.95,80.25 261.83,78.21 C250.12,70.53 239.46,63.39 235.06,60.26 C232.55,58.48 229.15,56.29 227.50,55.38 C225.85,54.48 220.00,50.79 214.50,47.19 C209.00,43.58 203.60,40.14 202.50,39.54 C201.40,38.94 195.21,34.94 188.75,30.66 C182.29,26.38 175.49,22.63 173.64,22.33 C170.68,21.85 168.68,22.83 156.89,30.54 C149.53,35.36 139.00,42.21 133.50,45.77 C128.00,49.33 122.60,52.87 121.50,53.63 C116.25,57.28 111.26,60.57 108.84,61.96 C107.38,62.81 105.13,64.23 103.84,65.13 C102.55,66.03 96.78,69.80 91.00,73.51 C85.22,77.22 77.57,82.16 74.00,84.50 C70.43,86.83 61.65,92.46 54.50,97.00 C47.35,101.55 36.21,108.69 29.74,112.88 L 17.99 120.50 L 18.16 314.93 L 21.42 317.80 C23.21,319.37 27.79,322.69 31.59,325.18 C55.70,340.94 93.13,365.70 96.50,368.11 C98.70,369.68 102.53,372.17 105.00,373.64 C107.47,375.12 114.00,379.29 119.50,382.90 C125.00,386.52 130.25,389.93 131.17,390.49 C133.57,391.95 141.16,396.87 148.13,401.50 C151.45,403.70 158.28,408.06 163.33,411.20 ZM 180.72 313.66 C173.18,318.49 170.67,318.89 167.00,315.87 C164.79,314.06 135.68,294.75 113.44,280.36 C109.07,277.53 104.49,274.25 103.25,273.07 L 101.00 270.92 L 101.00 219.65 C101.00,180.12 101.29,168.03 102.25,166.84 C102.94,166.00 106.43,163.36 110.00,160.99 C113.57,158.62 117.72,155.85 119.21,154.84 C120.70,153.83 122.14,153.00 122.42,153.00 C122.89,153.00 144.34,139.04 150.14,134.96 C161.40,127.04 171.22,121.00 172.83,121.00 C174.60,121.00 183.85,125.56 185.00,127.01 C186.06,128.34 194.92,134.00 195.93,134.00 C196.52,134.00 197.00,134.35 197.00,134.77 C197.00,135.19 200.26,137.53 204.25,139.96 C208.24,142.39 214.20,146.26 217.50,148.57 C220.80,150.87 224.58,153.09 225.91,153.49 C227.23,153.90 230.05,155.95 232.17,158.05 L 236.02 161.86 L 235.76 205.18 L 235.50 248.50 L 233.31 248.81 C231.84,249.02 227.09,246.21 218.81,240.24 C212.04,235.36 204.93,230.76 203.00,230.01 C201.07,229.27 198.99,228.28 198.37,227.81 C196.14,226.12 194.97,239.10 193.46,282.00 C192.68,304.46 192.18,307.64 189.27,308.69 C188.29,309.04 184.45,311.28 180.72,313.66 ZM 384.30 316.36 C382.54,317.26 380.96,318.00 380.79,318.00 C380.38,318.00 349.84,297.57 339.27,290.22 C334.74,287.07 329.09,283.51 326.72,282.31 C324.48,281.16 322.84,280.55 321.65,279.45 C318.47,276.51 318.47,270.12 318.50,240.89 C318.50,238.15 318.50,235.21 318.50,232.05 C318.50,230.66 318.50,229.32 318.50,228.01 C318.50,195.08 318.49,186.60 321.07,185.73 C321.96,185.43 323.16,186.04 324.78,186.87 C324.96,186.97 325.15,187.06 325.35,187.16 C327.63,188.32 329.73,189.60 330.00,190.01 C330.27,190.41 333.88,192.91 338.00,195.56 C342.12,198.20 345.65,200.74 345.83,201.18 C346.02,201.63 346.69,202.01 347.33,202.03 C347.98,202.04 353.90,205.86 360.50,210.51 C367.10,215.16 373.03,218.97 373.68,218.98 C374.56,219.00 374.75,213.86 374.43,198.75 C373.00,129.47 373.01,127.51 375.00,124.25 C376.14,122.36 378.01,120.94 379.88,120.53 C382.53,119.94 384.61,120.97 396.21,128.58 C412.71,139.40 425.81,147.93 437.50,155.45 C442.45,158.63 447.95,162.61 449.72,164.28 L 452.93 167.33 L 453.03 271.87 L 449.77 274.29 C447.97,275.62 438.85,281.56 429.50,287.49 C420.15,293.41 410.11,299.89 407.19,301.88 C404.27,303.87 401.13,305.95 400.21,306.50 C399.30,307.05 396.06,309.12 393.02,311.11 C389.99,313.09 386.06,315.45 384.30,316.36 ZM 156.00 305.79 C163.43,310.78 170.51,314.89 171.74,314.93 C174.76,315.02 187.20,306.93 188.68,303.91 C190.12,300.97 190.79,293.04 192.01,264.50 C193.16,237.55 194.44,224.97 196.12,223.93 C198.03,222.75 199.06,223.36 224.36,240.67 C227.04,242.50 230.07,244.00 231.11,244.00 C231.28,244.00 231.43,244.02 231.56,244.04 C231.78,244.06 231.96,244.08 232.13,244.03 C233.24,243.67 233.22,239.80 233.06,209.41 C233.04,206.52 233.03,203.39 233.01,200.00 L 232.82 162.50 L 229.66 159.78 C227.92,158.28 223.35,155.16 219.50,152.84 C212.49,148.62 182.88,129.50 177.79,125.91 C174.11,123.32 171.26,123.53 166.39,126.77 C164.13,128.27 160.31,130.81 157.89,132.42 C155.48,134.03 145.62,140.47 136.00,146.75 C126.38,153.03 115.35,160.26 111.50,162.83 L 104.50 167.50 L 104.00 216.00 C103.72,242.68 103.72,266.05 104.00,267.95 C104.44,271.01 105.66,272.20 115.00,278.64 C120.78,282.62 125.86,285.91 126.29,285.94 C126.73,285.97 127.63,286.48 128.29,287.06 C128.96,287.64 132.43,290.05 136.00,292.42 C139.57,294.79 148.57,300.81 156.00,305.79 ZM 378.80 313.46 C380.29,314.26 381.64,314.94 381.82,314.96 C382.63,315.06 387.69,311.95 402.00,302.53 C410.52,296.91 420.92,290.25 425.10,287.71 C435.15,281.61 448.74,272.22 449.71,270.71 C450.13,270.04 450.33,246.55 450.15,218.50 C449.88,176.16 449.58,167.23 448.40,165.91 C446.66,163.97 440.27,159.65 424.50,149.76 C417.90,145.63 406.42,138.21 399.00,133.28 L 398.27 132.80 C385.56,124.36 381.79,121.85 379.76,122.86 C378.87,123.30 378.31,124.43 377.48,126.04 C376.26,128.41 376.01,134.64 376.09,162.20 C376.13,180.52 376.52,201.35 376.94,208.50 C377.59,219.61 377.47,221.68 376.16,222.75 C374.91,223.77 374.25,223.65 372.56,222.14 C370.31,220.11 348.48,205.00 347.80,205.00 C347.57,205.00 342.24,201.61 335.96,197.47 C329.67,193.33 323.85,190.07 323.02,190.24 C321.69,190.49 321.50,195.83 321.50,232.96 L 321.50 275.40 L 325.66 278.45 C327.95,280.13 333.05,283.52 337.00,285.99 C340.95,288.45 344.92,291.03 345.84,291.71 C349.41,294.36 376.26,312.07 378.80,313.46 ZM 384.16 451.77 C383.73,455.44 381.00,459.72 381.00,456.73 C381.00,454.46 377.29,451.69 375.03,452.28 C373.91,452.57 373.25,452.41 373.56,451.91 C373.87,451.41 374.74,451.00 375.50,451.00 C376.26,451.00 377.20,450.48 377.60,449.85 C377.99,449.21 377.90,448.94 377.40,449.24 C376.91,449.54 375.92,449.16 375.21,448.40 C372.47,445.43 376.42,447.02 379.70,450.20 C382.74,453.14 383.00,453.22 383.00,451.26 C383.00,450.08 383.36,448.90 383.79,448.63 C384.23,448.36 384.39,449.78 384.16,451.77 ZM 236.16 451.77 C235.92,453.77 235.16,455.98 234.47,456.68 C233.45,457.70 233.08,457.45 232.57,455.43 C232.22,454.04 230.94,452.51 229.72,452.02 C227.91,451.29 227.84,451.11 229.31,451.06 C230.47,451.02 230.86,450.55 230.40,449.75 C230.00,449.06 230.88,449.59 232.34,450.92 C234.95,453.30 235.00,453.31 235.00,451.23 C235.00,450.07 235.36,448.90 235.79,448.63 C236.23,448.36 236.39,449.78 236.16,451.77 ZM 233.97 531.25 C233.92,533.23 229.26,536.24 228.41,534.85 C227.94,534.09 228.18,533.93 229.10,534.38 C229.87,534.76 229.75,534.52 228.84,533.85 C227.34,532.74 227.42,532.49 229.70,531.31 C232.87,529.67 234.01,529.65 233.97,531.25 ZM 473.76 498.91 C472.88,502.32 472.58,501.98 472.32,500.00 C472.14,498.62 470.32,486.34 468.28,472.70 L 464.56 447.90 L 464.58 447.90 L 468.48 473.45 C470.63,487.50 472.75,499.00 473.19,499.00 C473.42,499.00 473.62,498.97 473.76,498.91 ZM 480.71 465.27 C480.15,468.03 479.55,471.00 478.94,474.09 C476.85,484.61 475.47,491.46 474.53,495.69 C475.66,489.78 478.40,476.34 480.71,465.27 Z" fill="rgb(220,152,119)"/>
<path d="M 163.33 411.20 C158.28,408.06 151.45,403.70 148.13,401.50 C141.16,396.87 133.57,391.95 131.17,390.49 C130.25,389.93 125.00,386.52 119.50,382.90 C114.00,379.29 107.47,375.12 105.00,373.64 C102.53,372.17 98.70,369.68 96.50,368.11 C93.13,365.70 55.70,340.94 31.59,325.18 C27.79,322.69 23.21,319.37 21.42,317.80 L 18.16 314.93 L 17.99 120.50 L 29.74 112.88 C36.21,108.69 47.35,101.55 54.50,97.00 C61.65,92.46 70.43,86.83 74.00,84.50 C77.57,82.16 85.22,77.22 91.00,73.51 C96.78,69.80 102.55,66.03 103.84,65.13 C105.13,64.23 107.38,62.81 108.84,61.96 C111.26,60.57 116.25,57.28 121.50,53.63 C122.60,52.87 128.00,49.33 133.50,45.77 C139.00,42.21 149.53,35.36 156.89,30.54 C168.68,22.83 170.68,21.85 173.64,22.33 C175.49,22.63 182.29,26.38 188.75,30.66 C195.21,34.94 201.40,38.94 202.50,39.54 C203.60,40.14 209.00,43.58 214.50,47.19 C220.00,50.79 225.85,54.48 227.50,55.38 C229.15,56.29 232.55,58.48 235.06,60.26 C239.46,63.39 250.12,70.53 261.83,78.21 C264.95,80.25 269.80,83.13 272.62,84.61 L 277.74 87.29 L 281.89 84.90 C284.16,83.58 292.43,78.18 300.26,72.90 C313.47,63.99 339.24,47.23 350.20,40.42 C352.78,38.81 359.31,34.53 364.70,30.90 C379.95,20.63 380.18,20.54 385.07,23.04 C387.32,24.18 393.51,28.02 398.83,31.56 C421.14,46.42 427.37,50.44 429.24,51.21 C431.00,51.94 440.10,57.92 471.00,78.68 C481.83,85.96 495.93,95.00 496.44,95.00 C496.74,95.00 499.34,96.69 502.20,98.75 C505.07,100.81 510.21,104.30 513.63,106.50 C529.81,116.90 535.86,121.20 536.44,122.70 C536.78,123.60 537.02,167.22 536.96,219.63 L 536.85 314.92 L 533.47 317.89 C530.19,320.78 517.99,328.97 501.46,339.42 C497.03,342.21 492.70,344.95 491.84,345.50 C490.97,346.05 486.94,348.69 482.88,351.37 C478.82,354.05 473.92,357.24 472.00,358.47 C470.08,359.70 464.64,363.24 459.93,366.35 C455.22,369.46 451.01,372.00 450.57,372.00 C450.14,372.00 447.99,373.42 445.80,375.16 C440.69,379.21 435.11,382.99 434.21,383.03 C433.82,383.04 430.58,385.09 427.00,387.57 C417.69,394.03 412.65,397.43 411.50,398.00 C410.95,398.27 404.57,402.44 397.31,407.25 C389.83,412.22 383.08,416.00 381.70,416.00 C379.51,416.00 369.50,409.79 342.95,391.99 C338.25,388.84 332.89,385.48 331.04,384.52 C329.20,383.57 327.20,382.38 326.59,381.88 C325.99,381.38 323.70,379.77 321.50,378.31 C282.79,352.54 279.79,350.70 276.81,350.79 C274.92,350.84 268.74,354.51 258.24,361.79 C249.58,367.80 239.80,374.47 236.50,376.61 C233.20,378.75 230.27,380.77 230.00,381.10 C229.73,381.43 228.38,382.28 227.00,382.99 C224.02,384.52 211.26,392.77 197.74,401.91 C183.34,411.63 174.68,417.01 173.53,416.95 C172.96,416.92 168.37,414.33 163.33,411.20 ZM 180.72 313.66 C184.45,311.28 188.29,309.04 189.27,308.69 C192.18,307.64 192.68,304.46 193.46,282.00 C194.97,239.10 196.14,226.12 198.37,227.81 C198.99,228.28 201.07,229.27 203.00,230.01 C204.93,230.76 212.04,235.36 218.81,240.24 C227.09,246.21 231.84,249.02 233.31,248.81 L 235.50 248.50 L 235.76 205.18 L 236.02 161.86 L 232.17 158.05 C230.05,155.95 227.23,153.90 225.91,153.49 C224.58,153.09 220.80,150.87 217.50,148.57 C214.20,146.26 208.24,142.39 204.25,139.96 C200.26,137.53 197.00,135.19 197.00,134.77 C197.00,134.35 196.52,134.00 195.93,134.00 C194.92,134.00 186.06,128.34 185.00,127.01 C183.85,125.56 174.60,121.00 172.83,121.00 C171.22,121.00 161.40,127.04 150.14,134.96 C144.34,139.04 122.89,153.00 122.42,153.00 C122.14,153.00 120.70,153.83 119.21,154.84 C117.72,155.85 113.57,158.62 110.00,160.99 C106.43,163.36 102.94,166.00 102.25,166.84 C101.29,168.03 101.00,180.12 101.00,219.65 L 101.00 270.92 L 103.25 273.07 C104.49,274.25 109.07,277.53 113.44,280.36 C135.68,294.75 164.79,314.06 167.00,315.87 C170.67,318.89 173.18,318.49 180.72,313.66 ZM 384.30 316.36 C386.06,315.45 389.99,313.09 393.02,311.11 C396.06,309.12 399.30,307.05 400.21,306.50 C401.13,305.95 404.27,303.87 407.19,301.88 C410.11,299.89 420.15,293.41 429.50,287.49 C438.85,281.56 447.97,275.62 449.77,274.29 L 453.03 271.87 L 452.93 167.33 L 449.72 164.28 C447.95,162.61 442.45,158.63 437.50,155.45 C425.81,147.93 412.71,139.40 396.21,128.58 C384.61,120.97 382.53,119.94 379.88,120.53 C378.01,120.94 376.14,122.36 375.00,124.25 C373.01,127.51 373.00,129.47 374.43,198.75 C374.75,213.86 374.56,219.00 373.68,218.98 C373.03,218.97 367.10,215.16 360.50,210.51 C353.90,205.86 347.98,202.04 347.33,202.03 C346.69,202.01 346.02,201.63 345.83,201.18 C345.65,200.74 342.12,198.20 338.00,195.56 C333.88,192.91 330.27,190.41 330.00,190.01 C329.73,189.60 327.63,188.32 325.35,187.16 C325.15,187.06 324.96,186.97 324.78,186.87 C323.16,186.04 321.96,185.43 321.07,185.73 C318.49,186.60 318.50,195.08 318.50,228.01 C318.50,229.32 318.50,230.66 318.50,232.05 C318.50,235.21 318.50,238.15 318.50,240.89 C318.47,270.12 318.47,276.51 321.65,279.45 C322.84,280.55 324.48,281.16 326.72,282.31 C329.09,283.51 334.74,287.07 339.27,290.22 C349.84,297.57 380.38,318.00 380.79,318.00 C380.96,318.00 382.54,317.26 384.30,316.36 ZM 384.16 451.77 C384.30,450.56 384.29,449.56 384.17,449.02 C385.11,448.61 386.97,448.66 391.06,448.86 C395.15,449.06 398.83,449.74 399.23,450.36 C399.99,451.53 400.34,568.00 399.59,568.00 C399.36,568.00 395.65,568.67 391.34,569.50 C387.03,570.32 383.39,571.00 383.25,571.00 C383.11,571.00 382.95,563.01 382.88,553.25 C382.82,543.49 382.66,535.05 382.54,534.50 C382.41,533.95 382.24,533.12 382.15,532.66 C382.07,532.20 380.56,533.04 378.80,534.52 C376.05,536.83 374.94,537.14 371.05,536.70 C367.30,536.28 365.86,535.47 362.86,532.09 C356.84,525.32 355.50,517.89 355.50,491.50 C355.50,470.93 355.66,469.02 357.92,462.11 C359.57,457.06 361.50,453.51 364.01,450.86 C367.21,447.50 368.27,447.00 372.16,447.00 C372.98,447.00 373.68,447.03 374.30,447.10 C374.35,447.34 374.63,447.77 375.21,448.40 C375.92,449.16 376.91,449.54 377.40,449.24 C377.90,448.94 377.99,449.21 377.60,449.85 C377.20,450.48 376.26,451.00 375.50,451.00 C374.74,451.00 373.87,451.41 373.56,451.91 C373.31,452.31 373.70,452.50 374.46,452.40 C373.15,453.24 373.00,458.17 373.00,491.77 C373.00,521.15 373.30,530.90 374.23,531.83 C376.26,533.86 378.39,532.73 380.50,528.50 C382.38,524.75 382.50,522.50 382.50,492.00 C382.50,468.52 382.30,460.90 381.43,457.73 C382.22,457.63 383.84,454.53 384.16,451.77 ZM 236.16 451.77 C236.30,450.53 236.29,449.51 236.16,448.99 C237.08,448.61 238.95,448.66 243.00,448.86 C247.12,449.06 250.84,449.42 251.25,449.67 C252.33,450.32 252.19,566.77 251.11,567.43 C249.54,568.40 237.52,570.67 236.24,570.25 C235.32,569.94 235.00,565.26 235.00,551.98 C235.00,541.04 234.61,533.88 233.99,533.49 C233.67,533.30 233.01,533.42 232.23,533.78 C233.19,533.00 233.95,532.04 233.97,531.25 C234.00,529.82 233.09,529.68 230.62,530.85 C230.86,530.67 231.08,530.46 231.29,530.24 C234.27,526.94 234.95,519.68 234.98,490.93 C235.00,467.17 234.73,461.56 233.38,457.60 C233.32,457.42 233.25,457.24 233.19,457.07 C233.50,457.44 233.87,457.27 234.47,456.68 C235.16,455.98 235.92,453.77 236.16,451.77 ZM 225.67 531.33 C226.37,532.04 227.59,532.16 228.80,531.80 C227.43,532.59 227.57,532.91 228.84,533.85 C229.75,534.52 229.87,534.76 229.10,534.38 C228.18,533.93 227.94,534.09 228.41,534.85 C228.71,535.35 229.51,535.28 230.40,534.90 C230.39,534.91 230.37,534.92 230.36,534.93 C226.58,537.91 220.95,537.67 217.03,534.37 C209.23,527.81 206.51,514.44 207.32,486.50 C207.86,467.66 208.72,462.29 212.33,455.35 C214.83,450.53 218.53,447.81 223.28,447.27 C227.15,446.84 228.11,447.16 231.26,449.93 C234.13,452.44 234.71,452.93 235.00,451.83 C234.96,453.28 234.67,453.05 232.34,450.92 C230.88,449.59 230.00,449.06 230.40,449.75 C230.86,450.55 230.47,451.02 229.31,451.06 C227.84,451.11 227.91,451.29 229.72,452.02 C230.94,452.51 232.22,454.04 232.57,455.43 C232.61,455.59 232.65,455.74 232.69,455.88 C230.94,452.14 228.32,450.57 226.25,452.24 C225.29,453.01 225.00,462.19 225.00,491.96 C225.00,513.25 225.30,530.97 225.67,531.33 ZM 381.00 456.58 C380.17,454.98 379.23,453.78 378.25,453.02 C379.69,453.89 380.91,455.30 381.00,456.58 ZM 376.40 447.61 C377.45,448.06 378.36,448.81 379.53,450.03 C378.46,449.02 377.33,448.18 376.40,447.61 ZM 382.63 452.59 L 383.00 451.03 C383.00,451.11 383.00,451.18 383.00,451.26 C383.00,452.13 382.95,452.60 382.63,452.59 Z" fill="rgb(233,94,37)"/>
<path d="M 0.00 288.50 L 0.00 0.00 L 283.00 0.00 L 566.00 0.00 L 566.00 288.50 L 566.00 577.00 L 283.00 577.00 L 0.00 577.00 L 0.00 288.50 ZM 459.04 568.46 C460.54,567.03 462.49,564.20 463.38,562.18 C464.27,560.15 470.11,533.75 476.35,503.50 C485.48,459.24 487.42,448.43 486.27,448.16 C485.49,447.98 484.65,448.02 484.42,448.25 C484.08,448.59 474.00,497.41 474.00,498.69 C474.00,498.86 473.64,499.00 473.19,499.00 C472.75,499.00 470.63,487.50 468.48,473.45 L 464.58 447.90 L 456.54 448.58 C452.12,448.95 448.31,449.42 448.08,449.63 C447.60,450.06 448.37,454.33 458.02,505.00 L 465.16 542.50 L 463.59 550.41 C460.96,563.60 456.32,570.05 450.50,568.59 C447.71,567.89 443.00,563.81 443.00,562.09 C443.00,561.54 445.78,560.96 449.17,560.80 C452.99,560.61 455.50,560.02 455.75,559.25 C456.06,558.31 453.98,558.00 447.46,558.00 L 438.75 558.00 L 439.39 561.20 C441.36,571.07 452.15,575.06 459.04,568.46 ZM 251.11 567.43 C252.19,566.77 252.33,450.32 251.25,449.67 C250.84,449.42 247.12,449.06 243.00,448.86 C235.82,448.52 235.49,448.60 235.18,450.79 C234.85,453.05 234.81,453.04 231.26,449.93 C228.11,447.16 227.15,446.84 223.28,447.27 C218.53,447.81 214.83,450.53 212.33,455.35 C208.72,462.29 207.86,467.66 207.32,486.50 C206.51,514.44 209.23,527.81 217.03,534.37 C220.95,537.67 226.58,537.91 230.36,534.93 C231.80,533.80 233.44,533.15 233.99,533.49 C234.61,533.88 235.00,541.04 235.00,551.98 C235.00,565.26 235.32,569.94 236.24,570.25 C237.52,570.67 249.54,568.40 251.11,567.43 ZM 391.34 569.50 C395.65,568.67 399.36,568.00 399.59,568.00 C400.34,568.00 399.99,451.53 399.23,450.36 C398.83,449.74 395.15,449.06 391.06,448.86 C383.97,448.52 383.59,448.61 383.06,450.81 L 382.50 453.13 L 379.56 450.06 C377.14,447.54 375.84,447.00 372.16,447.00 C368.27,447.00 367.21,447.50 364.01,450.86 C361.50,453.51 359.57,457.06 357.92,462.11 C355.66,469.02 355.50,470.93 355.50,491.50 C355.50,517.89 356.84,525.32 362.86,532.09 C365.86,535.47 367.30,536.28 371.05,536.70 C374.94,537.14 376.05,536.83 378.80,534.52 C380.56,533.04 382.07,532.20 382.15,532.66 C382.24,533.12 382.41,533.95 382.54,534.50 C382.66,535.05 382.82,543.49 382.88,553.25 C382.95,563.01 383.11,571.00 383.25,571.00 C383.39,571.00 387.03,570.32 391.34,569.50 ZM 281.94 536.87 C283.73,536.25 285.97,534.46 286.92,532.89 L 288.65 530.04 L 290.82 532.97 C292.94,535.84 298.04,537.98 302.79,537.99 L 305.09 538.00 L 304.79 497.57 C304.51,458.35 304.44,457.06 302.41,454.32 C298.29,448.76 294.42,447.00 286.32,447.00 C275.72,447.00 269.01,450.27 265.40,457.20 C263.23,461.39 263.62,467.46 266.25,470.39 C268.52,472.92 272.63,474.34 272.35,472.50 C272.26,471.95 271.61,468.03 270.91,463.79 C269.73,456.74 269.78,455.91 271.38,454.13 C275.75,449.30 284.53,448.66 286.71,453.00 C288.46,456.48 288.50,480.93 286.75,481.40 C276.83,484.11 273.33,485.61 270.04,488.59 C262.90,495.03 259.91,507.41 261.97,522.00 C263.16,530.38 265.03,533.68 270.07,536.25 C274.05,538.28 277.40,538.45 281.94,536.87 ZM 344.00 534.50 C344.00,533.57 343.06,533.00 341.50,533.00 L 339.00 533.00 L 339.00 472.89 C339.00,425.22 338.74,412.88 337.75,413.26 C337.06,413.52 333.24,414.32 329.25,415.03 L 322.00 416.32 L 322.00 476.16 L 322.00 536.00 L 333.00 536.00 C342.11,536.00 344.00,535.74 344.00,534.50 ZM 439.00 534.50 C439.00,533.57 438.06,533.00 436.50,533.00 L 434.00 533.00 L 434.00 472.93 C434.00,416.20 433.90,412.89 432.25,413.36 C431.29,413.63 427.24,414.40 423.25,415.08 L 416.00 416.32 L 416.00 476.16 L 416.00 536.00 L 427.50 536.00 C437.06,536.00 439.00,535.75 439.00,534.50 ZM 189.79 409.67 C206.07,398.97 212.49,394.77 244.50,373.94 C254.95,367.14 263.95,361.21 264.50,360.77 C267.12,358.68 273.62,354.71 275.79,353.89 C278.44,352.88 279.89,353.74 322.17,381.50 C383.16,421.54 381.10,420.27 383.46,419.20 C385.40,418.32 395.45,411.79 440.50,382.17 C446.00,378.55 454.55,372.98 459.50,369.78 C464.45,366.59 471.88,361.71 476.00,358.94 C480.12,356.17 486.42,352.05 490.00,349.78 C493.58,347.50 505.23,339.88 515.89,332.82 C526.56,325.77 535.66,320.00 536.12,320.00 C536.58,320.00 537.57,318.76 538.33,317.25 C539.48,314.96 539.66,298.97 539.43,221.50 C539.28,170.35 539.12,126.61 539.08,124.31 L 539.00 120.11 L 527.75 112.53 C521.56,108.36 513.35,102.97 509.50,100.55 C505.65,98.13 501.38,95.28 500.00,94.22 C498.62,93.16 492.74,89.36 486.91,85.77 C481.09,82.17 472.09,76.34 466.91,72.81 C461.74,69.27 451.20,62.41 443.50,57.54 C427.58,47.50 414.04,38.72 399.38,28.93 C393.82,25.22 387.43,21.24 385.17,20.09 L 381.08 18.00 L 376.60 20.49 C374.14,21.87 365.24,27.61 356.82,33.25 C348.39,38.89 339.02,45.06 336.00,46.95 C332.98,48.85 325.86,53.46 320.18,57.20 C314.51,60.94 309.68,64.00 309.46,64.00 C309.24,64.00 305.78,66.17 301.78,68.83 C285.28,79.77 278.52,84.00 277.54,83.98 C276.07,83.96 271.72,81.30 248.22,66.05 C236.83,58.66 222.32,49.27 216.00,45.19 C209.68,41.11 199.55,34.51 193.50,30.53 C187.45,26.54 180.42,22.09 177.88,20.63 L 173.27 17.97 L 167.88 20.82 C164.92,22.39 153.73,29.43 143.00,36.47 C132.27,43.51 119.68,51.75 115.00,54.79 C110.32,57.84 96.82,66.72 85.00,74.53 C73.18,82.34 56.53,93.14 48.00,98.52 C39.47,103.90 28.79,110.70 24.25,113.63 L 16.00 118.96 L 16.00 217.91 C16.00,301.17 16.22,317.07 17.39,318.18 C18.97,319.68 28.15,325.86 70.00,353.59 C86.22,364.35 101.53,374.33 104.00,375.78 C106.47,377.22 116.15,383.42 125.50,389.54 C141.38,399.94 150.07,405.60 165.95,415.84 C169.50,418.13 172.78,420.00 173.24,420.00 C173.71,420.00 181.15,415.35 189.79,409.67 ZM 225.67 531.33 C225.30,530.97 225.00,513.25 225.00,491.96 C225.00,462.19 225.29,453.01 226.25,452.24 C228.61,450.33 231.69,452.65 233.38,457.60 C234.73,461.56 235.00,467.17 234.98,490.93 C234.95,519.68 234.27,526.94 231.29,530.24 C229.67,532.02 226.89,532.56 225.67,531.33 ZM 374.23 531.83 C373.30,530.90 373.00,521.15 373.00,491.77 C373.00,456.74 373.16,452.88 374.64,452.31 C376.82,451.47 379.17,453.05 381.00,456.59 C382.24,459.00 382.50,465.07 382.50,492.00 C382.50,522.50 382.38,524.75 380.50,528.50 C378.39,532.73 376.26,533.86 374.23,531.83 ZM 280.20 529.80 C279.35,528.95 279.00,522.97 279.00,509.25 C279.00,490.05 279.02,489.89 281.45,487.45 C282.80,486.10 284.86,485.00 286.03,485.00 C288.13,485.00 288.14,485.17 287.82,506.35 C287.58,522.60 287.17,528.09 286.13,529.35 C284.51,531.29 281.89,531.49 280.20,529.80 ZM 156.00 305.79 C148.57,300.81 139.57,294.79 136.00,292.42 C132.43,290.05 128.96,287.64 128.29,287.06 C127.63,286.48 126.73,285.97 126.29,285.94 C125.86,285.91 120.78,282.62 115.00,278.64 C105.66,272.20 104.44,271.01 104.00,267.95 C103.72,266.05 103.72,242.68 104.00,216.00 L 104.50 167.50 L 111.50 162.83 C115.35,160.26 126.38,153.03 136.00,146.75 C145.62,140.47 155.48,134.03 157.89,132.42 C160.31,130.81 164.13,128.27 166.39,126.77 C171.26,123.53 174.11,123.32 177.79,125.91 C182.88,129.50 212.49,148.62 219.50,152.84 C223.35,155.16 227.92,158.28 229.66,159.78 L 232.82 162.50 L 233.01 200.00 C233.24,247.63 233.40,244.00 231.11,244.00 C230.07,244.00 227.04,242.50 224.36,240.67 C199.06,223.36 198.03,222.75 196.12,223.93 C194.44,224.97 193.16,237.55 192.01,264.50 C190.79,293.04 190.12,300.97 188.68,303.91 C187.20,306.93 174.76,315.02 171.74,314.93 C170.51,314.89 163.43,310.78 156.00,305.79 ZM 378.80 313.46 C376.26,312.07 349.41,294.36 345.84,291.71 C344.92,291.03 340.95,288.45 337.00,285.99 C333.05,283.52 327.95,280.13 325.66,278.45 L 321.50 275.40 L 321.50 232.96 C321.50,195.83 321.69,190.49 323.02,190.24 C323.85,190.07 329.67,193.33 335.96,197.47 C342.24,201.61 347.57,205.00 347.80,205.00 C348.48,205.00 370.31,220.11 372.56,222.14 C374.25,223.65 374.91,223.77 376.16,222.75 C377.47,221.68 377.59,219.61 376.94,208.50 C376.52,201.35 376.13,180.52 376.09,162.20 C376.01,134.64 376.26,128.41 377.48,126.04 C380.23,120.72 379.95,120.62 399.00,133.28 C406.42,138.21 417.90,145.63 424.50,149.76 C440.27,159.65 446.66,163.97 448.40,165.91 C449.58,167.23 449.88,176.16 450.15,218.50 C450.33,246.55 450.13,270.04 449.71,270.71 C448.74,272.22 435.15,281.61 425.10,287.71 C420.92,290.25 410.52,296.91 402.00,302.53 C387.69,311.95 382.63,315.06 381.82,314.96 C381.64,314.94 380.29,314.26 378.80,313.46 Z" fill="rgb(253,252,250)"/>
</g>
</svg>